<svg width="32" height="48" viewBox="0 0 32 48" fill="none" xmlns="http://www.w3.org/2000/svg">
<path d="M17.2071 10.732H20.4641C20.9503 10.732 21.345 10.3473 21.345 9.87332C21.345 9.39932 20.9503 9.01465 20.4641 9.01465H17.2071C16.7196 9.01465 16.3262 9.39932 16.3262 9.87332C16.3262 10.3473 16.7196 10.732 17.2071 10.732Z" fill="#EEE2CA"/>
<path fill-rule="evenodd" clip-rule="evenodd" d="M16.3987 18.6432C16.6911 18.6512 16.9906 18.6558 17.2984 18.6558C19.604 18.6558 22.2514 18.3914 24.0872 17.0004C26.1074 15.4697 27.464 11.8795 27.1105 8.99558C26.8756 7.07568 25.8936 5.64462 24.3468 4.96573C23.2274 4.47344 22.0188 4.51122 20.9547 4.54671L20.9441 4.54706C20.7387 4.55381 20.5355 4.56049 20.3345 4.56274C19.0684 4.57877 17.8011 4.61655 16.5337 4.66005C14.1553 4.74232 11.778 4.85195 9.39949 4.96165L9.38551 4.96229L9.33383 4.96458C9.33501 4.79056 9.33383 4.61884 9.33031 4.45055C9.39373 2.10132 7.296 1.17285 6.17784 1.01028C5.70332 0.937014 5.24878 1.2633 5.17595 1.73268C5.10548 2.20207 5.4367 2.63825 5.91826 2.70809C5.98756 2.71839 7.60843 2.9714 7.5685 4.44826C7.59316 5.44198 7.50624 6.56279 7.41346 7.74885L7.41331 7.75077C7.14438 11.2077 6.8396 15.1255 9.49474 16.9683C11.4879 18.3524 14.2316 18.5906 16.3987 18.6432ZM9.17972 7.76265C9.20833 7.39761 9.23649 7.03833 9.25984 6.68757L9.47008 6.67842C11.845 6.56851 14.2211 6.4586 16.596 6.37618C17.8492 6.33267 19.1048 6.29604 20.3569 6.28001C20.5684 6.27664 20.7822 6.26999 20.9982 6.26327L21.0123 6.26284L21.0337 6.2622C21.9831 6.23379 22.8819 6.2069 23.6233 6.53188C24.6134 6.96577 25.1971 7.86333 25.3616 9.19822C25.6388 11.4719 24.5394 14.484 23.0066 15.6437C21.3482 16.9008 18.4694 16.9798 16.4433 16.9271C14.5264 16.8802 12.1222 16.6832 10.5178 15.5705C8.67139 14.2882 8.92509 11.03 9.17057 7.87936L9.17972 7.76265Z" fill="#EEE2CA"/>
<path d="M8.94775 21.5176C8.94775 22.335 9.63016 23.0001 10.47 23.0001C11.3086 23.0001 11.9898 22.335 11.9898 21.5176C11.9898 20.7013 11.3086 20.0361 10.47 20.0361C9.63016 20.0361 8.94775 20.7013 8.94775 21.5176Z" fill="#EEE2CA"/>
<path d="M21.0835 21.5176C21.0835 22.335 21.7659 23.0001 22.6045 23.0001C23.4432 23.0001 24.1256 22.335 24.1256 21.5176C24.1256 20.7013 23.4432 20.0361 22.6045 20.0361C21.7659 20.0361 21.0835 20.7013 21.0835 21.5176Z" fill="#EEE2CA"/>
<path d="M6.75709 44.21C5.73976 44.21 4.85076 44 4.09009 43.58C3.32942 43.16 2.73676 42.5673 2.31209 41.802C1.89209 41.032 1.68209 40.1337 1.68209 39.107C1.68209 38.3603 1.80576 37.6767 2.05309 37.056C2.30509 36.4307 2.65742 35.8893 3.11009 35.432C3.56742 34.9747 4.10642 34.62 4.72709 34.368C5.34776 34.116 6.02909 33.99 6.77109 33.99C7.51776 33.99 8.16176 34.0833 8.70309 34.27C9.24909 34.4567 9.72509 34.7227 10.1311 35.068L9.31909 36.349C9.01109 36.0643 8.65176 35.852 8.24109 35.712C7.83042 35.572 7.37776 35.502 6.88309 35.502C6.33709 35.502 5.84476 35.586 5.40609 35.754C4.96742 35.922 4.59176 36.1623 4.27909 36.475C3.97109 36.783 3.73309 37.1587 3.56509 37.602C3.40176 38.0407 3.32009 38.5377 3.32009 39.093C3.32009 39.849 3.46709 40.4953 3.76109 41.032C4.05976 41.5687 4.47976 41.9793 5.02109 42.264C5.56709 42.544 6.21109 42.684 6.95309 42.684C7.44776 42.684 7.92376 42.6117 8.38109 42.467C8.84309 42.3177 9.27476 42.0773 9.67609 41.746L10.4041 43.069C9.93276 43.4377 9.39376 43.72 8.78709 43.916C8.18509 44.112 7.50842 44.21 6.75709 44.21ZM13.7748 44.21C13.2941 44.21 12.8718 44.1213 12.5078 43.944C12.1438 43.762 11.8591 43.5077 11.6538 43.181C11.4531 42.8497 11.3528 42.46 11.3528 42.012C11.3528 41.634 11.4485 41.2933 11.6398 40.99C11.8311 40.682 12.1275 40.4277 12.5288 40.227C12.9348 40.0263 13.4551 39.8933 14.0898 39.828C14.7245 39.758 15.4875 39.7673 16.3788 39.856L16.4068 40.92C15.7721 40.8313 15.2261 40.794 14.7688 40.808C14.3115 40.822 13.9358 40.8803 13.6418 40.983C13.3525 41.081 13.1378 41.214 12.9978 41.382C12.8625 41.5453 12.7948 41.7343 12.7948 41.949C12.7948 42.285 12.9138 42.544 13.1518 42.726C13.3945 42.908 13.7258 42.999 14.1458 42.999C14.5051 42.999 14.8271 42.9337 15.1118 42.803C15.3965 42.6723 15.6205 42.488 15.7838 42.25C15.9518 42.012 16.0358 41.732 16.0358 41.41V39.569C16.0358 39.261 15.9705 38.995 15.8398 38.771C15.7091 38.5423 15.5108 38.365 15.2448 38.239C14.9788 38.113 14.6475 38.05 14.2508 38.05C13.8868 38.05 13.5275 38.106 13.1728 38.218C12.8181 38.3253 12.4798 38.4957 12.1578 38.729L11.7238 37.595C12.1578 37.301 12.6105 37.0933 13.0818 36.972C13.5531 36.8507 14.0058 36.79 14.4398 36.79C15.0838 36.79 15.6345 36.8927 16.0918 37.098C16.5538 37.2987 16.9085 37.6043 17.1558 38.015C17.4031 38.421 17.5268 38.9343 17.5268 39.555V44H16.1408V43.181C15.9075 43.5123 15.5831 43.7667 15.1678 43.944C14.7525 44.1213 14.2881 44.21 13.7748 44.21ZM19.5744 44V37.07H21.1144V38.029C21.3758 37.595 21.6931 37.2917 22.0664 37.119C22.4398 36.9417 22.8411 36.853 23.2704 36.853C23.4104 36.853 23.5434 36.86 23.6694 36.874C23.7954 36.888 23.9168 36.909 24.0334 36.937L23.8304 38.526C23.6904 38.484 23.5481 38.4513 23.4034 38.428C23.2588 38.4047 23.1141 38.393 22.9694 38.393C22.4328 38.393 21.9894 38.5587 21.6394 38.89C21.2894 39.2167 21.1144 39.6623 21.1144 40.227V44H19.5744ZM28.2833 44.21C27.6066 44.21 27.0653 44.014 26.6593 43.622C26.2533 43.23 26.0503 42.6303 26.0503 41.823V35.047H27.5903V37.07H29.5153V38.344H27.5903V41.487C27.5903 41.9723 27.6813 42.3153 27.8633 42.516C28.05 42.712 28.3113 42.81 28.6473 42.81C28.8106 42.81 28.9646 42.7913 29.1093 42.754C29.254 42.7167 29.3846 42.6677 29.5013 42.607L29.7743 43.853C29.5736 43.9557 29.3426 44.0397 29.0813 44.105C28.8246 44.175 28.5586 44.21 28.2833 44.21ZM24.5313 38.344V37.07H26.2533V38.344H24.5313Z" fill="#EEE2CA"/>
</svg>
