<svg width="63" height="48" viewBox="0 0 63 48" fill="none" xmlns="http://www.w3.org/2000/svg">
<path fill-rule="evenodd" clip-rule="evenodd" d="M26.9282 2.02374C26.5801 1.99999 26.156 1.99999 25.6481 2H25.5904C25.0824 1.99999 24.6584 1.99999 24.3102 2.02374C23.9478 2.04847 23.6055 2.10177 23.2736 2.23923C22.5035 2.55822 21.8917 3.17005 21.5727 3.94014C21.4353 4.27201 21.382 4.61433 21.3572 4.97673C21.3335 5.32486 21.3335 5.74889 21.3335 6.25685V6.31457C21.3335 6.82253 21.3335 7.24658 21.3572 7.59471C21.382 7.95711 21.4353 8.29942 21.5727 8.63129C21.8917 9.40138 22.5035 10.0133 23.2736 10.3322C23.6055 10.4697 23.9478 10.523 24.3102 10.5477C24.6584 10.5714 25.0824 10.5714 25.5903 10.5714H25.6481C26.156 10.5714 26.5801 10.5714 26.9282 10.5477C27.2906 10.523 27.6329 10.4697 27.9648 10.3322C28.7349 10.0133 29.3468 9.40138 29.6657 8.63129C29.8032 8.29942 29.8565 7.95711 29.8812 7.59471C29.9049 7.24657 29.9049 6.82254 29.9049 6.31458V6.25685C29.9049 5.74889 29.9049 5.32486 29.8812 4.97673C29.8565 4.61433 29.8032 4.27201 29.6657 3.94014C29.3468 3.17005 28.7349 2.55822 27.9648 2.23923C27.6329 2.10177 27.2906 2.04847 26.9282 2.02374ZM23.9297 3.82303C24.0178 3.7865 24.1518 3.75282 24.4269 3.73405C24.7097 3.71476 25.075 3.71429 25.6192 3.71429C26.1634 3.71429 26.5287 3.71476 26.8115 3.73405C27.0866 3.75282 27.2206 3.7865 27.3088 3.82303C27.6588 3.96802 27.9369 4.24613 28.0819 4.59617C28.1184 4.68434 28.1521 4.81831 28.1709 5.09342C28.1902 5.37624 28.1906 5.74149 28.1906 6.28572C28.1906 6.82994 28.1902 7.1952 28.1709 7.47801C28.1521 7.75313 28.1184 7.88709 28.0819 7.97527C27.9369 8.3253 27.6588 8.60341 27.3088 8.7484C27.2206 8.78493 27.0866 8.81862 26.8115 8.83738C26.5287 8.85668 26.1634 8.85714 25.6192 8.85714C25.075 8.85714 24.7097 8.85668 24.4269 8.83738C24.1518 8.81862 24.0178 8.78493 23.9297 8.7484C23.5796 8.60341 23.3015 8.3253 23.1565 7.97527C23.12 7.88709 23.0863 7.75313 23.0675 7.47801C23.0483 7.1952 23.0478 6.82994 23.0478 6.28572C23.0478 5.74149 23.0483 5.37624 23.0675 5.09342C23.0863 4.81831 23.12 4.68434 23.1565 4.59617C23.3015 4.24613 23.5796 3.96802 23.9297 3.82303Z" fill="#EEE2CA"/>
<path fill-rule="evenodd" clip-rule="evenodd" d="M38.3569 2.02374C38.0088 1.99999 37.5847 1.99999 37.0768 2H37.0191C36.5111 1.99999 36.087 1.99999 35.7389 2.02374C35.3765 2.04847 35.0342 2.10177 34.7023 2.23923C33.9323 2.55822 33.3204 3.17005 33.0014 3.94014C32.8639 4.27201 32.8107 4.61433 32.786 4.97673C32.7622 5.32486 32.7622 5.74889 32.7622 6.25685V6.31458C32.7622 6.82254 32.7622 7.24657 32.786 7.59471C32.8107 7.95711 32.8639 8.29942 33.0014 8.63129C33.3204 9.40138 33.9323 10.0133 34.7023 10.3322C35.0342 10.4697 35.3765 10.523 35.7389 10.5477C36.087 10.5714 36.5111 10.5714 37.019 10.5714H37.0768C37.5847 10.5714 38.0088 10.5714 38.3569 10.5477C38.7193 10.523 39.0616 10.4697 39.3935 10.3322C40.1636 10.0133 40.7755 9.40138 41.0944 8.63129C41.2319 8.29942 41.2852 7.95711 41.3099 7.59471C41.3336 7.24657 41.3336 6.82254 41.3336 6.31458V6.25685C41.3336 5.74889 41.3336 5.32486 41.3099 4.97673C41.2852 4.61433 41.2319 4.27201 41.0944 3.94014C40.7755 3.17005 40.1636 2.55822 39.3935 2.23923C39.0616 2.10177 38.7193 2.04847 38.3569 2.02374ZM35.3583 3.82303C35.4465 3.7865 35.5805 3.75282 35.8556 3.73405C36.1384 3.71476 36.5037 3.71429 37.0479 3.71429C37.5922 3.71429 37.9574 3.71476 38.2403 3.73405C38.5154 3.75282 38.6493 3.7865 38.7375 3.82303C39.0875 3.96802 39.3656 4.24613 39.5107 4.59617C39.5471 4.68434 39.5808 4.81831 39.5996 5.09342C39.6189 5.37624 39.6194 5.74149 39.6194 6.28572C39.6194 6.82994 39.6189 7.1952 39.5996 7.47801C39.5808 7.75313 39.5471 7.88709 39.5107 7.97527C39.3656 8.3253 39.0875 8.60341 38.7375 8.7484C38.6493 8.78493 38.5154 8.81862 38.2403 8.83738C37.9574 8.85668 37.5922 8.85714 37.0479 8.85714C36.5037 8.85714 36.1384 8.85668 35.8556 8.83738C35.5805 8.81862 35.4465 8.78493 35.3583 8.7484C35.0084 8.60341 34.7302 8.3253 34.5853 7.97527C34.5487 7.88709 34.515 7.75313 34.4963 7.47801C34.4769 7.1952 34.4765 6.82994 34.4765 6.28572C34.4765 5.74149 34.4769 5.37624 34.4963 5.09342C34.515 4.81831 34.5487 4.68434 34.5853 4.59617C34.7302 4.24613 35.0084 3.96802 35.3583 3.82303Z" fill="#EEE2CA"/>
<path fill-rule="evenodd" clip-rule="evenodd" d="M26.9282 13.4525C26.5801 13.4287 26.156 13.4287 25.6481 13.4287H25.5903C25.0824 13.4287 24.6584 13.4287 24.3102 13.4525C23.9478 13.4772 23.6055 13.5304 23.2736 13.6679C22.5035 13.9869 21.8917 14.5988 21.5727 15.3688C21.4353 15.7007 21.382 16.043 21.3572 16.4054C21.3335 16.7535 21.3335 17.1776 21.3335 17.6855V17.7433C21.3335 18.2512 21.3335 18.6753 21.3572 19.0235C21.382 19.3859 21.4353 19.7281 21.5727 20.06C21.8917 20.8301 22.5035 21.442 23.2736 21.7609C23.6055 21.8984 23.9478 21.9517 24.3102 21.9764C24.6584 22.0001 25.0824 22.0001 25.5903 22.0001H25.6481C26.156 22.0001 26.5801 22.0001 26.9282 21.9764C27.2906 21.9517 27.6329 21.8984 27.9648 21.7609C28.7349 21.442 29.3468 20.8301 29.6657 20.06C29.8032 19.7281 29.8565 19.3859 29.8812 19.0235C29.9049 18.6753 29.9049 18.2512 29.9049 17.7433V17.6855C29.9049 17.1776 29.9049 16.7535 29.8812 16.4054C29.8565 16.043 29.8032 15.7007 29.6657 15.3688C29.3468 14.5988 28.7349 13.9869 27.9648 13.6679C27.6329 13.5304 27.2906 13.4772 26.9282 13.4525ZM23.9297 15.2518C24.0178 15.2152 24.1518 15.1815 24.4269 15.1628C24.7097 15.1435 25.075 15.143 25.6192 15.143C26.1634 15.143 26.5287 15.1435 26.8115 15.1628C27.0866 15.1815 27.2206 15.2152 27.3088 15.2518C27.6588 15.3967 27.9369 15.6749 28.0819 16.0248C28.1184 16.1131 28.1521 16.247 28.1709 16.5221C28.1902 16.8049 28.1906 17.1702 28.1906 17.7144C28.1906 18.2587 28.1902 18.6239 28.1709 18.9068C28.1521 19.1819 28.1184 19.3158 28.0819 19.404C27.9369 19.754 27.6588 20.0321 27.3088 20.1772C27.2206 20.2136 27.0866 20.2473 26.8115 20.2661C26.5287 20.2854 26.1634 20.2859 25.6192 20.2859C25.075 20.2859 24.7097 20.2854 24.4269 20.2661C24.1518 20.2473 24.0178 20.2136 23.9297 20.1772C23.5796 20.0321 23.3015 19.754 23.1565 19.404C23.12 19.3158 23.0863 19.1819 23.0675 18.9068C23.0483 18.6239 23.0478 18.2587 23.0478 17.7144C23.0478 17.1702 23.0483 16.8049 23.0675 16.5221C23.0863 16.247 23.12 16.1131 23.1565 16.0248C23.3015 15.6749 23.5796 15.3967 23.9297 15.2518Z" fill="#EEE2CA"/>
<path fill-rule="evenodd" clip-rule="evenodd" d="M38.3569 13.4525C38.0088 13.4287 37.5847 13.4287 37.0768 13.4287H37.019C36.5111 13.4287 36.087 13.4287 35.7389 13.4525C35.3765 13.4772 35.0342 13.5304 34.7023 13.6679C33.9323 13.9869 33.3204 14.5988 33.0014 15.3688C32.8639 15.7007 32.8107 16.043 32.786 16.4054C32.7622 16.7535 32.7622 17.1776 32.7622 17.6855V17.7433C32.7622 18.2512 32.7622 18.6753 32.786 19.0235C32.8107 19.3859 32.8639 19.7281 33.0014 20.06C33.3204 20.8301 33.9323 21.442 34.7023 21.7609C35.0342 21.8984 35.3765 21.9517 35.7389 21.9764C36.087 22.0001 36.5111 22.0001 37.019 22.0001H37.0768C37.5847 22.0001 38.0088 22.0001 38.3569 21.9764C38.7193 21.9517 39.0616 21.8984 39.3935 21.7609C40.1636 21.442 40.7755 20.8301 41.0944 20.06C41.2319 19.7281 41.2852 19.3859 41.3099 19.0235C41.3336 18.6753 41.3336 18.2512 41.3336 17.7433V17.6855C41.3336 17.1776 41.3336 16.7535 41.3099 16.4054C41.2852 16.043 41.2319 15.7007 41.0944 15.3688C40.7755 14.5988 40.1636 13.9869 39.3935 13.6679C39.0616 13.5304 38.7193 13.4772 38.3569 13.4525ZM35.3583 15.2518C35.4465 15.2152 35.5805 15.1815 35.8556 15.1628C36.1384 15.1435 36.5037 15.143 37.0479 15.143C37.5922 15.143 37.9574 15.1435 38.2403 15.1628C38.5154 15.1815 38.6493 15.2152 38.7375 15.2518C39.0875 15.3967 39.3656 15.6749 39.5107 16.0248C39.5471 16.1131 39.5808 16.247 39.5996 16.5221C39.6189 16.8049 39.6194 17.1702 39.6194 17.7144C39.6194 18.2587 39.6189 18.6239 39.5996 18.9068C39.5808 19.1819 39.5471 19.3158 39.5107 19.404C39.3656 19.754 39.0875 20.0321 38.7375 20.1772C38.6493 20.2136 38.5154 20.2473 38.2403 20.2661C37.9574 20.2854 37.5922 20.2859 37.0479 20.2859C36.5037 20.2859 36.1384 20.2854 35.8556 20.2661C35.5805 20.2473 35.4465 20.2136 35.3583 20.1772C35.0084 20.0321 34.7302 19.754 34.5853 19.404C34.5487 19.3158 34.515 19.1819 34.4963 18.9068C34.4769 18.6239 34.4765 18.2587 34.4765 17.7144C34.4765 17.1702 34.4769 16.8049 34.4963 16.5221C34.515 16.247 34.5487 16.1131 34.5853 16.0248C34.7302 15.6749 35.0084 15.3967 35.3583 15.2518Z" fill="#EEE2CA"/>
<path d="M6.29127 44.21C5.27394 44.21 4.38494 44 3.62427 43.58C2.8636 43.16 2.27094 42.5673 1.84627 41.802C1.42627 41.032 1.21627 40.1337 1.21627 39.107C1.21627 38.3603 1.33994 37.6767 1.58727 37.056C1.83927 36.4307 2.1916 35.8893 2.64427 35.432C3.1016 34.9747 3.6406 34.62 4.26127 34.368C4.88194 34.116 5.56327 33.99 6.30527 33.99C7.05194 33.99 7.69594 34.0833 8.23727 34.27C8.78327 34.4567 9.25927 34.7227 9.66527 35.068L8.85327 36.349C8.54527 36.0643 8.18594 35.852 7.77527 35.712C7.3646 35.572 6.91194 35.502 6.41727 35.502C5.87127 35.502 5.37894 35.586 4.94027 35.754C4.5016 35.922 4.12594 36.1623 3.81327 36.475C3.50527 36.783 3.26727 37.1587 3.09927 37.602C2.93594 38.0407 2.85427 38.5377 2.85427 39.093C2.85427 39.849 3.00127 40.4953 3.29527 41.032C3.59394 41.5687 4.01394 41.9793 4.55527 42.264C5.10127 42.544 5.74527 42.684 6.48727 42.684C6.98194 42.684 7.45794 42.6117 7.91527 42.467C8.37727 42.3177 8.80894 42.0773 9.21027 41.746L9.93827 43.069C9.46694 43.4377 8.92794 43.72 8.32127 43.916C7.71927 44.112 7.0426 44.21 6.29127 44.21ZM13.309 44.21C12.8283 44.21 12.406 44.1213 12.042 43.944C11.678 43.762 11.3933 43.5077 11.188 43.181C10.9873 42.8497 10.887 42.46 10.887 42.012C10.887 41.634 10.9827 41.2933 11.174 40.99C11.3653 40.682 11.6617 40.4277 12.063 40.227C12.469 40.0263 12.9893 39.8933 13.624 39.828C14.2587 39.758 15.0217 39.7673 15.913 39.856L15.941 40.92C15.3063 40.8313 14.7603 40.794 14.303 40.808C13.8457 40.822 13.47 40.8803 13.176 40.983C12.8867 41.081 12.672 41.214 12.532 41.382C12.3967 41.5453 12.329 41.7343 12.329 41.949C12.329 42.285 12.448 42.544 12.686 42.726C12.9287 42.908 13.26 42.999 13.68 42.999C14.0393 42.999 14.3613 42.9337 14.646 42.803C14.9307 42.6723 15.1547 42.488 15.318 42.25C15.486 42.012 15.57 41.732 15.57 41.41V39.569C15.57 39.261 15.5047 38.995 15.374 38.771C15.2433 38.5423 15.045 38.365 14.779 38.239C14.513 38.113 14.1817 38.05 13.785 38.05C13.421 38.05 13.0617 38.106 12.707 38.218C12.3523 38.3253 12.014 38.4957 11.692 38.729L11.258 37.595C11.692 37.301 12.1447 37.0933 12.616 36.972C13.0873 36.8507 13.54 36.79 13.974 36.79C14.618 36.79 15.1687 36.8927 15.626 37.098C16.088 37.2987 16.4427 37.6043 16.69 38.015C16.9373 38.421 17.061 38.9343 17.061 39.555V44H15.675V43.181C15.4417 43.5123 15.1173 43.7667 14.702 43.944C14.2867 44.1213 13.8223 44.21 13.309 44.21ZM21.8839 44.21C21.2072 44.21 20.6659 44.014 20.2599 43.622C19.8539 43.23 19.6509 42.6303 19.6509 41.823V35.047H21.1909V37.07H23.1159V38.344H21.1909V41.487C21.1909 41.9723 21.2819 42.3153 21.4639 42.516C21.6505 42.712 21.9119 42.81 22.2479 42.81C22.4112 42.81 22.5652 42.7913 22.7099 42.754C22.8545 42.7167 22.9852 42.6677 23.1019 42.607L23.3749 43.853C23.1742 43.9557 22.9432 44.0397 22.6819 44.105C22.4252 44.175 22.1592 44.21 21.8839 44.21ZM18.1319 38.344V37.07H19.8539V38.344H18.1319ZM28.1105 44.21C27.3638 44.21 26.7082 44.0583 26.1435 43.755C25.5788 43.447 25.1378 43.0177 24.8205 42.467C24.5078 41.9163 24.3515 41.277 24.3515 40.549C24.3515 40.017 24.4425 39.527 24.6245 39.079C24.8065 38.6263 25.0632 38.2343 25.3945 37.903C25.7258 37.5717 26.1132 37.315 26.5565 37.133C27.0045 36.951 27.4922 36.86 28.0195 36.86C28.5935 36.86 29.1045 36.9627 29.5525 37.168C30.0005 37.3687 30.3715 37.651 30.6655 38.015C30.9642 38.379 31.1742 38.806 31.2955 39.296C31.4215 39.7813 31.4425 40.3087 31.3585 40.878H25.8285C25.8192 41.2933 25.9102 41.6573 26.1015 41.97C26.2928 42.278 26.5658 42.5183 26.9205 42.691C27.2798 42.8637 27.7022 42.95 28.1875 42.95C28.5795 42.95 28.9575 42.8917 29.3215 42.775C29.6902 42.6537 30.0238 42.4763 30.3225 42.243L30.9175 43.349C30.6935 43.531 30.4228 43.6873 30.1055 43.818C29.7882 43.944 29.4568 44.0397 29.1115 44.105C28.7662 44.175 28.4325 44.21 28.1105 44.21ZM25.9195 39.744H29.8465C29.8325 39.2213 29.6645 38.8107 29.3425 38.512C29.0252 38.2133 28.5725 38.064 27.9845 38.064C27.4152 38.064 26.9415 38.2133 26.5635 38.512C26.1902 38.8107 25.9755 39.2213 25.9195 39.744ZM35.6882 47.15C35.1702 47.15 34.7035 47.1033 34.2882 47.01C33.8729 46.9213 33.5182 46.7907 33.2242 46.618C32.9349 46.4453 32.7132 46.2377 32.5592 45.995C32.4052 45.7523 32.3282 45.4817 32.3282 45.183C32.3282 44.945 32.3912 44.721 32.5172 44.511C32.6479 44.301 32.8392 44.1213 33.0912 43.972C33.3479 43.818 33.6605 43.7037 34.0292 43.629C33.7539 43.489 33.5485 43.3303 33.4132 43.153C33.2825 42.9757 33.2172 42.7727 33.2172 42.544C33.2172 42.348 33.2732 42.1637 33.3852 41.991C33.5019 41.8137 33.6652 41.6573 33.8752 41.522C34.0899 41.382 34.3419 41.2677 34.6312 41.179C34.9205 41.0903 35.2402 41.039 35.5902 41.025L35.9262 41.697C35.6369 41.6923 35.3895 41.7157 35.1842 41.767C34.9835 41.8137 34.8272 41.8813 34.7152 41.97C34.6079 42.054 34.5542 42.1567 34.5542 42.278C34.5542 42.4367 34.6452 42.5533 34.8272 42.628C35.0092 42.698 35.2659 42.747 35.5972 42.775L36.7872 42.866C37.3705 42.9127 37.8675 43.0083 38.2782 43.153C38.6935 43.2977 39.0109 43.5007 39.2302 43.762C39.4542 44.0233 39.5662 44.3547 39.5662 44.756C39.5662 45.0967 39.4729 45.4117 39.2862 45.701C39.1042 45.995 38.8405 46.2493 38.4952 46.464C38.1545 46.6787 37.7462 46.8467 37.2702 46.968C36.7942 47.0893 36.2669 47.15 35.6882 47.15ZM35.8422 46.086C36.5375 46.086 37.0835 45.981 37.4802 45.771C37.8815 45.5657 38.0822 45.2973 38.0822 44.966C38.0822 44.714 37.9492 44.518 37.6832 44.378C37.4172 44.238 37.0112 44.1493 36.4652 44.112L35.1912 44.014C34.8925 44.0373 34.6335 44.0933 34.4142 44.182C34.1995 44.2707 34.0362 44.385 33.9242 44.525C33.8122 44.665 33.7562 44.8237 33.7562 45.001C33.7562 45.2157 33.8402 45.4047 34.0082 45.568C34.1762 45.7313 34.4165 45.8573 34.7292 45.946C35.0419 46.0393 35.4129 46.086 35.8422 46.086ZM35.7932 41.802C35.2145 41.802 34.6942 41.6923 34.2322 41.473C33.7749 41.2537 33.4132 40.9573 33.1472 40.584C32.8812 40.2107 32.7482 39.793 32.7482 39.331C32.7482 38.869 32.8812 38.4513 33.1472 38.078C33.4179 37.7047 33.7819 37.4083 34.2392 37.189C34.7012 36.9697 35.2192 36.86 35.7932 36.86C36.3672 36.86 36.8829 36.9697 37.3402 37.189C37.7975 37.4083 38.1592 37.7047 38.4252 38.078C38.6959 38.4513 38.8312 38.869 38.8312 39.331C38.8312 39.7883 38.6982 40.2037 38.4322 40.577C38.1662 40.9503 37.8045 41.249 37.3472 41.473C36.8899 41.6923 36.3719 41.802 35.7932 41.802ZM35.7932 40.647C36.1105 40.647 36.3929 40.5933 36.6402 40.486C36.8875 40.374 37.0812 40.22 37.2212 40.024C37.3612 39.8233 37.4312 39.5923 37.4312 39.331C37.4312 38.939 37.2772 38.6217 36.9692 38.379C36.6659 38.1317 36.2739 38.008 35.7932 38.008C35.4712 38.008 35.1865 38.064 34.9392 38.176C34.6965 38.288 34.5052 38.4443 34.3652 38.645C34.2252 38.841 34.1552 39.0697 34.1552 39.331C34.1552 39.7183 34.3069 40.0357 34.6102 40.283C34.9182 40.5257 35.3125 40.647 35.7932 40.647ZM36.8712 38.288L36.2972 37.217L40.0142 37.07L40.0002 38.344L36.8712 38.288ZM44.4961 44.21C43.7727 44.21 43.1264 44.0443 42.5571 43.713C41.9924 43.377 41.5491 42.9313 41.2271 42.376C40.9051 41.816 40.7441 41.2023 40.7441 40.535C40.7441 40.0403 40.8351 39.5737 41.0171 39.135C41.2037 38.6917 41.4651 38.2997 41.8011 37.959C42.1417 37.6183 42.5407 37.35 42.9981 37.154C43.4554 36.958 43.9571 36.86 44.5031 36.86C45.2264 36.86 45.8704 37.028 46.4351 37.364C47.0044 37.6953 47.4501 38.141 47.7721 38.701C48.0941 39.2563 48.2551 39.8677 48.2551 40.535C48.2551 41.025 48.1617 41.4917 47.9751 41.935C47.7931 42.3783 47.5341 42.7703 47.1981 43.111C46.8621 43.4517 46.4654 43.72 46.0081 43.916C45.5507 44.112 45.0467 44.21 44.4961 44.21ZM44.4961 42.845C44.9254 42.845 45.3057 42.7517 45.6371 42.565C45.9731 42.3737 46.2367 42.1053 46.4281 41.76C46.6194 41.4147 46.7151 41.0063 46.7151 40.535C46.7151 40.0637 46.6194 39.6553 46.4281 39.31C46.2367 38.96 45.9731 38.6917 45.6371 38.505C45.3057 38.3183 44.9254 38.225 44.4961 38.225C44.0667 38.225 43.6841 38.3183 43.3481 38.505C43.0167 38.6917 42.7554 38.96 42.5641 39.31C42.3774 39.6553 42.2841 40.0637 42.2841 40.535C42.2841 41.0063 42.3797 41.4147 42.5711 41.76C42.7624 42.1053 43.0237 42.3737 43.3551 42.565C43.6911 42.7517 44.0714 42.845 44.4961 42.845ZM49.802 44V37.07H51.342V38.029C51.6033 37.595 51.9206 37.2917 52.294 37.119C52.6673 36.9417 53.0686 36.853 53.498 36.853C53.638 36.853 53.771 36.86 53.897 36.874C54.023 36.888 54.1443 36.909 54.261 36.937L54.058 38.526C53.918 38.484 53.7756 38.4513 53.631 38.428C53.4863 38.4047 53.3416 38.393 53.197 38.393C52.6603 38.393 52.217 38.5587 51.867 38.89C51.517 39.2167 51.342 39.6623 51.342 40.227V44H49.802ZM56.3306 47.136C56.0786 47.136 55.8312 47.108 55.5886 47.052C55.3459 46.996 55.1079 46.9003 54.8746 46.765L55.2246 45.449C55.3692 45.5423 55.5279 45.6123 55.7006 45.659C55.8732 45.7057 56.0272 45.729 56.1626 45.729C56.4892 45.729 56.7459 45.652 56.9326 45.498C57.1192 45.344 57.2662 45.106 57.3736 44.784L57.6046 44.112L54.8746 37.07H56.5616L58.4796 42.446L60.3486 37.07H61.9796L58.9836 45.001C58.7689 45.5563 58.5286 45.988 58.2626 46.296C57.9966 46.6087 57.7026 46.8257 57.3806 46.947C57.0586 47.073 56.7086 47.136 56.3306 47.136Z" fill="#EEE2CA"/>
</svg>
