<svg width="24" height="24" viewBox="0 0 24 24" fill="none" xmlns="http://www.w3.org/2000/svg">
<path fill-rule="evenodd" clip-rule="evenodd" d="M12.0001 7.76848C10.7692 7.76848 9.77142 8.75347 9.77142 9.96848C9.77142 11.1835 10.7692 12.1685 12.0001 12.1685C13.2309 12.1685 14.2286 11.1835 14.2286 9.96848C14.2286 8.75347 13.2309 7.76848 12.0001 7.76848ZM8.05713 9.96848C8.05713 7.81884 9.82244 6.07617 12.0001 6.07617C14.1776 6.07617 15.9429 7.81884 15.9429 9.96848C15.9429 12.1181 14.1776 13.8608 12.0001 13.8608C9.82244 13.8608 8.05713 12.1181 8.05713 9.96848Z" fill="#262A2B"/>
<path fill-rule="evenodd" clip-rule="evenodd" d="M12 2.69231C7.38593 2.69231 3.71429 6.21799 3.71429 10.4769C3.71429 13.2184 5.303 15.9406 7.25277 18.0262C8.21736 19.058 9.2399 19.9002 10.1343 20.478C10.5818 20.7671 10.9849 20.982 11.3223 21.1219C11.6739 21.2677 11.8962 21.3077 12 21.3077C12.0897 21.3077 12.3031 21.2682 12.6561 21.1104C12.9925 20.9599 13.396 20.7291 13.8452 20.4202C14.7428 19.8032 15.7696 18.9122 16.739 17.8448C18.7068 15.6779 20.2858 12.9564 20.2858 10.4769C20.2858 6.21799 16.6141 2.69231 12 2.69231ZM2 10.4769C2 5.21377 6.51123 1 12 1C17.4888 1 22 5.21377 22 10.4769C22 13.5821 20.0818 16.6991 18.0154 18.9745C16.9676 20.1282 15.8429 21.1093 14.8249 21.8091C14.3162 22.1587 13.8207 22.4474 13.3635 22.6519C12.9227 22.849 12.4475 23 12 23C11.5667 23 11.1005 22.8655 10.6583 22.6821C10.2019 22.4928 9.70605 22.2238 9.19567 21.8941C8.17444 21.2344 7.04548 20.2997 5.99297 19.1738C3.9084 16.944 2 13.8278 2 10.4769Z" fill="#262A2B"/>
</svg>
