<svg width="20" height="20" viewBox="0 0 20 20" fill="none" xmlns="http://www.w3.org/2000/svg">
<path d="M3.98417 16.6674C3.85539 16.6674 3.72949 16.6293 3.62241 16.5577C3.51532 16.4862 3.43186 16.3845 3.38257 16.2655C3.33329 16.1465 3.32039 16.0156 3.34552 15.8893C3.37065 15.763 3.43268 15.647 3.52375 15.5559L15.555 3.5247C15.6771 3.40259 15.8427 3.33398 16.0154 3.33398C16.1881 3.33398 16.3537 3.40259 16.4758 3.5247C16.5979 3.64681 16.6665 3.81242 16.6665 3.98511C16.6665 4.1578 16.5979 4.32342 16.4758 4.44553L4.44459 16.4768C4.38418 16.5373 4.31241 16.5853 4.2334 16.618C4.15438 16.6507 4.06969 16.6675 3.98417 16.6674Z" fill="white"/>
<path d="M16.0154 16.6674C15.9299 16.6675 15.8452 16.6507 15.7662 16.618C15.6871 16.5853 15.6154 16.5373 15.555 16.4768L3.52372 4.44553C3.40161 4.32342 3.33301 4.1578 3.33301 3.98511C3.33301 3.81242 3.40161 3.64681 3.52372 3.5247C3.64583 3.40259 3.81145 3.33398 3.98413 3.33398C4.15682 3.33398 4.32244 3.40259 4.44455 3.5247L16.4758 15.5559C16.5669 15.647 16.6289 15.763 16.654 15.8893C16.6792 16.0156 16.6663 16.1465 16.617 16.2655C16.5677 16.3845 16.4842 16.4862 16.3771 16.5577C16.2701 16.6293 16.1442 16.6674 16.0154 16.6674Z" fill="white"/>
</svg>
