<svg width="25" height="24" viewBox="0 0 25 24" fill="none" xmlns="http://www.w3.org/2000/svg">
<path fill-rule="evenodd" clip-rule="evenodd" d="M7.92821 2.02374C7.58008 1.99999 7.15603 1.99999 6.64809 2H6.59035C6.0824 1.99999 5.65835 1.99999 5.31023 2.02374C4.94783 2.04847 4.60551 2.10177 4.27363 2.23923C3.50354 2.55822 2.89171 3.17005 2.57273 3.94014C2.43527 4.27201 2.38197 4.61433 2.35723 4.97673C2.33349 5.32486 2.33349 5.74889 2.3335 6.25685V6.31457C2.33349 6.82253 2.33349 7.24658 2.35723 7.59471C2.38197 7.95711 2.43527 8.29942 2.57273 8.63129C2.89171 9.40138 3.50354 10.0133 4.27363 10.3322C4.60551 10.4697 4.94783 10.523 5.31023 10.5477C5.65835 10.5714 6.08239 10.5714 6.59034 10.5714H6.64808C7.15603 10.5714 7.58007 10.5714 7.92821 10.5477C8.29061 10.523 8.63291 10.4697 8.96479 10.3322C9.73488 10.0133 10.3468 9.40138 10.6657 8.63129C10.8032 8.29942 10.8565 7.95711 10.8812 7.59471C10.9049 7.24657 10.9049 6.82254 10.9049 6.31458V6.25685C10.9049 5.74889 10.9049 5.32486 10.8812 4.97673C10.8565 4.61433 10.8032 4.27201 10.6657 3.94014C10.3468 3.17005 9.73488 2.55822 8.96479 2.23923C8.63291 2.10177 8.29061 2.04847 7.92821 2.02374ZM4.92967 3.82303C5.01784 3.7865 5.15181 3.75282 5.42691 3.73405C5.70974 3.71476 6.07498 3.71429 6.61921 3.71429C7.16344 3.71429 7.5287 3.71476 7.81151 3.73405C8.08663 3.75282 8.22058 3.7865 8.30877 3.82303C8.6588 3.96802 8.9369 4.24613 9.0819 4.59617C9.11842 4.68434 9.15211 4.81831 9.17088 5.09342C9.19017 5.37624 9.19064 5.74149 9.19064 6.28572C9.19064 6.82994 9.19017 7.1952 9.17088 7.47801C9.15211 7.75313 9.11842 7.88709 9.0819 7.97527C8.9369 8.3253 8.6588 8.60341 8.30877 8.7484C8.22058 8.78493 8.08663 8.81862 7.81151 8.83738C7.5287 8.85668 7.16344 8.85714 6.61921 8.85714C6.07498 8.85714 5.70974 8.85668 5.42691 8.83738C5.15181 8.81862 5.01784 8.78493 4.92967 8.7484C4.57962 8.60341 4.30152 8.3253 4.15653 7.97527C4.12 7.88709 4.08632 7.75313 4.06754 7.47801C4.04825 7.1952 4.04778 6.82994 4.04778 6.28572C4.04778 5.74149 4.04825 5.37624 4.06754 5.09342C4.08632 4.81831 4.12 4.68434 4.15653 4.59617C4.30152 4.24613 4.57962 3.96802 4.92967 3.82303Z" fill="#EEE5CA"/>
<path fill-rule="evenodd" clip-rule="evenodd" d="M19.3569 2.02374C19.0088 1.99999 18.5847 1.99999 18.0768 2H18.0191C17.5111 1.99999 17.087 1.99999 16.7389 2.02374C16.3765 2.04847 16.0342 2.10177 15.7023 2.23923C14.9323 2.55822 14.3204 3.17005 14.0014 3.94014C13.8639 4.27201 13.8107 4.61433 13.786 4.97673C13.7622 5.32486 13.7622 5.74889 13.7622 6.25685V6.31458C13.7622 6.82254 13.7622 7.24657 13.786 7.59471C13.8107 7.95711 13.8639 8.29942 14.0014 8.63129C14.3204 9.40138 14.9323 10.0133 15.7023 10.3322C16.0342 10.4697 16.3765 10.523 16.7389 10.5477C17.087 10.5714 17.5111 10.5714 18.019 10.5714H18.0768C18.5847 10.5714 19.0088 10.5714 19.3569 10.5477C19.7193 10.523 20.0616 10.4697 20.3935 10.3322C21.1636 10.0133 21.7755 9.40138 22.0944 8.63129C22.2319 8.29942 22.2852 7.95711 22.3099 7.59471C22.3336 7.24657 22.3336 6.82254 22.3336 6.31458V6.25685C22.3336 5.74889 22.3336 5.32486 22.3099 4.97673C22.2852 4.61433 22.2319 4.27201 22.0944 3.94014C21.7755 3.17005 21.1636 2.55822 20.3935 2.23923C20.0616 2.10177 19.7193 2.04847 19.3569 2.02374ZM16.3583 3.82303C16.4465 3.7865 16.5805 3.75282 16.8556 3.73405C17.1384 3.71476 17.5037 3.71429 18.0479 3.71429C18.5922 3.71429 18.9574 3.71476 19.2403 3.73405C19.5154 3.75282 19.6493 3.7865 19.7375 3.82303C20.0875 3.96802 20.3656 4.24613 20.5107 4.59617C20.5471 4.68434 20.5808 4.81831 20.5996 5.09342C20.6189 5.37624 20.6194 5.74149 20.6194 6.28572C20.6194 6.82994 20.6189 7.1952 20.5996 7.47801C20.5808 7.75313 20.5471 7.88709 20.5107 7.97527C20.3656 8.3253 20.0875 8.60341 19.7375 8.7484C19.6493 8.78493 19.5154 8.81862 19.2403 8.83738C18.9574 8.85668 18.5922 8.85714 18.0479 8.85714C17.5037 8.85714 17.1384 8.85668 16.8556 8.83738C16.5805 8.81862 16.4465 8.78493 16.3583 8.7484C16.0084 8.60341 15.7302 8.3253 15.5853 7.97527C15.5487 7.88709 15.515 7.75313 15.4963 7.47801C15.4769 7.1952 15.4765 6.82994 15.4765 6.28572C15.4765 5.74149 15.4769 5.37624 15.4963 5.09342C15.515 4.81831 15.5487 4.68434 15.5853 4.59617C15.7302 4.24613 16.0084 3.96802 16.3583 3.82303Z" fill="#EEE5CA"/>
<path fill-rule="evenodd" clip-rule="evenodd" d="M7.92821 13.4525C7.58007 13.4287 7.15603 13.4287 6.64808 13.4287H6.59034C6.08239 13.4287 5.65835 13.4287 5.31023 13.4525C4.94783 13.4772 4.60551 13.5304 4.27363 13.6679C3.50354 13.9869 2.89171 14.5988 2.57273 15.3688C2.43527 15.7007 2.38197 16.043 2.35723 16.4054C2.33349 16.7535 2.33349 17.1776 2.3335 17.6855V17.7433C2.33349 18.2512 2.33349 18.6753 2.35723 19.0235C2.38197 19.3859 2.43527 19.7281 2.57273 20.06C2.89171 20.8301 3.50354 21.442 4.27363 21.7609C4.60551 21.8984 4.94783 21.9517 5.31023 21.9764C5.65835 22.0001 6.08239 22.0001 6.59034 22.0001H6.64808C7.15603 22.0001 7.58007 22.0001 7.92821 21.9764C8.29061 21.9517 8.63291 21.8984 8.96479 21.7609C9.73488 21.442 10.3468 20.8301 10.6657 20.06C10.8032 19.7281 10.8565 19.3859 10.8812 19.0235C10.9049 18.6753 10.9049 18.2512 10.9049 17.7433V17.6855C10.9049 17.1776 10.9049 16.7535 10.8812 16.4054C10.8565 16.043 10.8032 15.7007 10.6657 15.3688C10.3468 14.5988 9.73488 13.9869 8.96479 13.6679C8.63291 13.5304 8.29061 13.4772 7.92821 13.4525ZM4.92967 15.2518C5.01784 15.2152 5.15181 15.1815 5.42691 15.1628C5.70974 15.1435 6.07498 15.143 6.61921 15.143C7.16344 15.143 7.5287 15.1435 7.81151 15.1628C8.08663 15.1815 8.22058 15.2152 8.30877 15.2518C8.6588 15.3967 8.9369 15.6749 9.0819 16.0248C9.11842 16.1131 9.15211 16.247 9.17088 16.5221C9.19017 16.8049 9.19064 17.1702 9.19064 17.7144C9.19064 18.2587 9.19017 18.6239 9.17088 18.9068C9.15211 19.1819 9.11842 19.3158 9.0819 19.404C8.9369 19.754 8.6588 20.0321 8.30877 20.1772C8.22058 20.2136 8.08663 20.2473 7.81151 20.2661C7.5287 20.2854 7.16344 20.2859 6.61921 20.2859C6.07498 20.2859 5.70974 20.2854 5.42691 20.2661C5.15181 20.2473 5.01784 20.2136 4.92967 20.1772C4.57962 20.0321 4.30152 19.754 4.15653 19.404C4.12 19.3158 4.08632 19.1819 4.06754 18.9068C4.04825 18.6239 4.04778 18.2587 4.04778 17.7144C4.04778 17.1702 4.04825 16.8049 4.06754 16.5221C4.08632 16.247 4.12 16.1131 4.15653 16.0248C4.30152 15.6749 4.57962 15.3967 4.92967 15.2518Z" fill="#EEE5CA"/>
<path fill-rule="evenodd" clip-rule="evenodd" d="M19.3569 13.4525C19.0088 13.4287 18.5847 13.4287 18.0768 13.4287H18.019C17.5111 13.4287 17.087 13.4287 16.7389 13.4525C16.3765 13.4772 16.0342 13.5304 15.7023 13.6679C14.9323 13.9869 14.3204 14.5988 14.0014 15.3688C13.8639 15.7007 13.8107 16.043 13.786 16.4054C13.7622 16.7535 13.7622 17.1776 13.7622 17.6855V17.7433C13.7622 18.2512 13.7622 18.6753 13.786 19.0235C13.8107 19.3859 13.8639 19.7281 14.0014 20.06C14.3204 20.8301 14.9323 21.442 15.7023 21.7609C16.0342 21.8984 16.3765 21.9517 16.7389 21.9764C17.087 22.0001 17.5111 22.0001 18.019 22.0001H18.0768C18.5847 22.0001 19.0088 22.0001 19.3569 21.9764C19.7193 21.9517 20.0616 21.8984 20.3935 21.7609C21.1636 21.442 21.7755 20.8301 22.0944 20.06C22.2319 19.7281 22.2852 19.3859 22.3099 19.0235C22.3336 18.6753 22.3336 18.2512 22.3336 17.7433V17.6855C22.3336 17.1776 22.3336 16.7535 22.3099 16.4054C22.2852 16.043 22.2319 15.7007 22.0944 15.3688C21.7755 14.5988 21.1636 13.9869 20.3935 13.6679C20.0616 13.5304 19.7193 13.4772 19.3569 13.4525ZM16.3583 15.2518C16.4465 15.2152 16.5805 15.1815 16.8556 15.1628C17.1384 15.1435 17.5037 15.143 18.0479 15.143C18.5922 15.143 18.9574 15.1435 19.2403 15.1628C19.5154 15.1815 19.6493 15.2152 19.7375 15.2518C20.0875 15.3967 20.3656 15.6749 20.5107 16.0248C20.5471 16.1131 20.5808 16.247 20.5996 16.5221C20.6189 16.8049 20.6194 17.1702 20.6194 17.7144C20.6194 18.2587 20.6189 18.6239 20.5996 18.9068C20.5808 19.1819 20.5471 19.3158 20.5107 19.404C20.3656 19.754 20.0875 20.0321 19.7375 20.1772C19.6493 20.2136 19.5154 20.2473 19.2403 20.2661C18.9574 20.2854 18.5922 20.2859 18.0479 20.2859C17.5037 20.2859 17.1384 20.2854 16.8556 20.2661C16.5805 20.2473 16.4465 20.2136 16.3583 20.1772C16.0084 20.0321 15.7302 19.754 15.5853 19.404C15.5487 19.3158 15.515 19.1819 15.4963 18.9068C15.4769 18.6239 15.4765 18.2587 15.4765 17.7144C15.4765 17.1702 15.4769 16.8049 15.4963 16.5221C15.515 16.247 15.5487 16.1131 15.5853 16.0248C15.7302 15.6749 16.0084 15.3967 16.3583 15.2518Z" fill="#EEE5CA"/>
</svg>
