<svg width="25" height="24" viewBox="0 0 25 24" fill="none" xmlns="http://www.w3.org/2000/svg">
<path d="M13.7071 10.732H16.9641C17.4503 10.732 17.845 10.3473 17.845 9.87332C17.845 9.39932 17.4503 9.01465 16.9641 9.01465H13.7071C13.2196 9.01465 12.8262 9.39932 12.8262 9.87332C12.8262 10.3473 13.2196 10.732 13.7071 10.732Z" fill="#EEE2CA"/>
<path fill-rule="evenodd" clip-rule="evenodd" d="M12.8987 18.6432C13.1911 18.6512 13.4906 18.6558 13.7984 18.6558C16.104 18.6558 18.7514 18.3914 20.5872 17.0004C22.6074 15.4697 23.964 11.8795 23.6105 8.99558C23.3756 7.07568 22.3936 5.64462 20.8468 4.96573C19.7274 4.47344 18.5188 4.51122 17.4547 4.54671L17.4441 4.54706C17.2387 4.55381 17.0355 4.56049 16.8345 4.56274C15.5684 4.57877 14.3011 4.61655 13.0337 4.66005C10.6553 4.74232 8.27797 4.85195 5.89949 4.96165L5.88551 4.96229L5.83383 4.96458C5.83501 4.79056 5.83383 4.61884 5.83031 4.45055C5.89373 2.10132 3.796 1.17285 2.67784 1.01028C2.20332 0.937014 1.74878 1.2633 1.67595 1.73268C1.60548 2.20207 1.9367 2.63825 2.41826 2.70809C2.48756 2.71839 4.10843 2.9714 4.0685 4.44826C4.09316 5.44198 4.00624 6.56279 3.91346 7.74885L3.91331 7.75077C3.64438 11.2077 3.3396 15.1255 5.99474 16.9683C7.98794 18.3524 10.7316 18.5906 12.8987 18.6432ZM5.67972 7.76265C5.70833 7.39761 5.73649 7.03833 5.75984 6.68757L5.97008 6.67842C8.345 6.56851 10.7211 6.4586 13.096 6.37618C14.3492 6.33267 15.6048 6.29604 16.8569 6.28001C17.0684 6.27664 17.2822 6.26999 17.4982 6.26327L17.5123 6.26284L17.5337 6.2622C18.4831 6.23379 19.3819 6.2069 20.1233 6.53188C21.1134 6.96577 21.6971 7.86333 21.8616 9.19822C22.1388 11.4719 21.0394 14.484 19.5066 15.6437C17.8482 16.9008 14.9694 16.9798 12.9433 16.9271C11.0264 16.8802 8.62219 16.6832 7.01777 15.5705C5.17139 14.2882 5.42509 11.03 5.67057 7.87936L5.67972 7.76265Z" fill="#EEE2CA"/>
<path d="M5.44775 21.5176C5.44775 22.335 6.13016 23.0001 6.96996 23.0001C7.80858 23.0001 8.48982 22.335 8.48982 21.5176C8.48982 20.7013 7.80858 20.0361 6.96996 20.0361C6.13016 20.0361 5.44775 20.7013 5.44775 21.5176Z" fill="#EEE2CA"/>
<path d="M17.5835 21.5176C17.5835 22.335 18.2659 23.0001 19.1045 23.0001C19.9432 23.0001 20.6256 22.335 20.6256 21.5176C20.6256 20.7013 19.9432 20.0361 19.1045 20.0361C18.2659 20.0361 17.5835 20.7013 17.5835 21.5176Z" fill="#EEE2CA"/>
</svg>
