<svg width="24" height="24" viewBox="0 0 24 24" fill="none" xmlns="http://www.w3.org/2000/svg">
<path fill-rule="evenodd" clip-rule="evenodd" d="M19.8399 19.9996H13.7127C13.363 19.9996 13.0791 19.7158 13.0791 19.366C13.0791 19.0163 13.363 18.7324 13.7127 18.7324H19.8399C20.1897 18.7324 20.4735 19.0163 20.4735 19.366C20.4735 19.7158 20.1897 19.9996 19.8399 19.9996Z" fill="white"/>
<path fill-rule="evenodd" clip-rule="evenodd" d="M13.3858 5.70364L5.43215 15.651C5.28769 15.8318 5.23447 16.065 5.28769 16.2888L5.86299 18.7261L8.4303 18.694C8.67445 18.6914 8.90001 18.5824 9.04953 18.3966C11.7672 14.9963 16.9483 8.51341 17.0953 8.32333C17.2338 8.09861 17.2879 7.78097 17.2152 7.47516C17.1409 7.16174 16.9458 6.89563 16.6644 6.72583C16.6045 6.68444 15.181 5.57945 15.1371 5.54482C14.6015 5.11566 13.82 5.19001 13.3858 5.70364ZM5.36288 20C5.06973 20 4.81461 19.7989 4.74618 19.5126L4.0543 16.5803C3.91153 15.9729 4.05345 15.3461 4.4429 14.8595L12.4008 4.90616C12.4042 4.90278 12.4067 4.89855 12.4101 4.89517C13.2828 3.85186 14.8608 3.69811 15.9253 4.55219C15.9675 4.58514 17.3808 5.68336 17.3808 5.68336C17.8945 5.98918 18.2957 6.53575 18.4478 7.18286C18.599 7.82321 18.4892 8.48384 18.1369 9.04224C18.1107 9.08364 18.0879 9.11912 10.0388 19.189C9.65102 19.6722 9.06981 19.9535 8.44551 19.9611L5.37132 20H5.36288Z" fill="white"/>
<path fill-rule="evenodd" clip-rule="evenodd" d="M16.0157 11.3358C15.8805 11.3358 15.7454 11.2927 15.6296 11.2049L11.0238 7.66691C10.7467 7.45402 10.6944 7.05697 10.9073 6.77819C11.121 6.5011 11.518 6.44957 11.796 6.66245L16.4026 10.1996C16.6797 10.4125 16.7321 10.8104 16.5183 11.0883C16.3942 11.2505 16.2058 11.3358 16.0157 11.3358Z" fill="white"/>
</svg>
