<svg width="24" height="24" viewBox="0 0 24 24" fill="none" xmlns="http://www.w3.org/2000/svg">
<g clip-path="url(#clip0_560_5167)">
<path fill-rule="evenodd" clip-rule="evenodd" d="M5.3534 1.84124C3.42827 1.84124 1.84931 3.42263 1.84931 5.35071V14.2291C1.84931 14.2941 1.8426 14.3575 1.82985 14.4188C1.9293 16.2598 3.46718 17.7386 5.32884 17.7386H7.11158C7.63749 17.7386 8.15912 17.9372 8.55054 18.3293L11.9804 21.7645L15.4104 18.3293C15.8018 17.9372 16.3235 17.7386 16.8494 17.7386H18.6321C20.5572 17.7386 22.1362 16.1572 22.1362 14.2291V5.35071C22.1362 3.42263 20.5572 1.84124 18.6321 1.84124H5.3534ZM0.00504168 14.0164C-0.0110329 14.0847 -0.0195312 14.1559 -0.0195312 14.2291C-0.0195312 17.1773 2.38509 19.5857 5.32884 19.5857H7.11158C7.1759 19.5857 7.21987 19.6088 7.2465 19.6354L11.3284 23.7236C11.5014 23.8968 11.7359 23.9941 11.9804 23.9941C12.225 23.9941 12.4596 23.8968 12.6325 23.7236L16.7145 19.6354C16.7411 19.6088 16.7851 19.5857 16.8494 19.5857H18.6321C21.5758 19.5857 23.9805 17.1773 23.9805 14.2291V5.35071C23.9805 2.40251 21.5758 -0.00585938 18.6321 -0.00585938H5.3534C2.40971 -0.00585938 0.00504168 2.40251 0.00504168 5.35071V14.0164Z" fill="#262A2B"/>
<path fill-rule="evenodd" clip-rule="evenodd" d="M11.9924 5.53516C12.5018 5.53516 12.9146 5.94868 12.9146 6.45871V10.6824C12.9146 11.1925 12.5018 11.606 11.9924 11.606C11.4832 11.606 11.0703 11.1925 11.0703 10.6824V6.45871C11.0703 5.94868 11.4832 5.53516 11.9924 5.53516Z" fill="#262A2B"/>
<path fill-rule="evenodd" clip-rule="evenodd" d="M10.7637 13.8603C10.7637 13.1802 11.3141 12.6289 11.9932 12.6289H12.0055C12.6846 12.6289 13.235 13.1802 13.235 13.8603C13.235 14.5404 12.6846 15.0918 12.0055 15.0918H11.9932C11.3141 15.0918 10.7637 14.5404 10.7637 13.8603Z" fill="#262A2B"/>
</g>
<defs>
<clipPath id="clip0_560_5167">
<rect width="24" height="24" fill="white"/>
</clipPath>
</defs>
</svg>
