<svg width="302" height="24" viewBox="0 0 302 24" fill="none" xmlns="http://www.w3.org/2000/svg">
<path d="M6.72 3.91215H10.296L16.992 20.6881H13.272L11.832 17.0401H5.184L3.744 20.6881H0L6.72 3.91215ZM10.872 14.1361L8.496 7.75215L6.12 14.1361H10.872Z" fill="#95622D"/>
<path d="M22.2728 21.0481C20.9288 21.0481 19.9048 20.6801 19.2008 19.9441C18.5128 19.1921 18.1688 18.1521 18.1688 16.8241V11.7841H16.4888V9.16815H18.1688V5.71215H21.7927V9.16815H24.5048V11.7841H21.7927V16.3441C21.7927 17.0161 21.9207 17.5041 22.1768 17.8081C22.4328 18.0961 22.8888 18.2401 23.5448 18.2401C24.0728 18.2401 24.5768 18.1121 25.0568 17.8561V20.5681C24.3208 20.8881 23.3927 21.0481 22.2728 21.0481Z" fill="#95622D"/>
<path d="M26.73 2.95215H30.354V10.4881C30.898 9.92815 31.514 9.51215 32.202 9.24015C32.89 8.95215 33.626 8.80815 34.41 8.80815C35.978 8.80815 37.146 9.23215 37.914 10.0801C38.698 10.9121 39.09 12.0401 39.09 13.4641V20.6881H35.466V13.8721C35.466 12.3841 34.778 11.6401 33.402 11.6401C32.794 11.6401 32.226 11.7921 31.698 12.0961C31.17 12.3841 30.722 12.8161 30.354 13.3921V20.6881H26.73V2.95215Z" fill="#95622D"/>
<path d="M45.7916 21.0481C44.3836 21.0481 43.2316 20.6961 42.3356 19.9921C41.4556 19.2722 41.0156 18.2961 41.0156 17.0641C41.0156 15.7841 41.4396 14.7921 42.2876 14.0881C43.1356 13.3681 44.3356 13.0081 45.8876 13.0081C46.5756 13.0081 47.2316 13.0801 47.8556 13.2241C48.4796 13.3681 49.0316 13.5681 49.5116 13.8241V13.5361C49.5116 12.8161 49.2556 12.2881 48.7436 11.9521C48.2316 11.6161 47.4476 11.4481 46.3916 11.4481C44.9836 11.4481 43.6876 11.7121 42.5036 12.2401V9.60015C43.0156 9.37615 43.6796 9.19215 44.4956 9.04815C45.3116 8.88815 46.1276 8.80815 46.9436 8.80815C49.0236 8.80815 50.5756 9.24015 51.5996 10.1041C52.6236 10.9521 53.1356 12.1441 53.1356 13.6801V20.6881H49.7276V19.6321C48.7516 20.5761 47.4396 21.0481 45.7916 21.0481ZM46.7756 18.6481C47.3676 18.6481 47.9036 18.5361 48.3836 18.3121C48.8636 18.0881 49.2396 17.7761 49.5116 17.3761V16.2241C48.6956 15.6801 47.7996 15.4081 46.8236 15.4081C46.1516 15.4081 45.6316 15.5521 45.2636 15.8401C44.9116 16.1121 44.7356 16.5201 44.7356 17.0641C44.7356 17.5761 44.9116 17.9681 45.2636 18.2401C45.6156 18.5121 46.1196 18.6481 46.7756 18.6481Z" fill="#95622D"/>
<path d="M59.7493 21.0481C58.4053 21.0481 57.3813 20.6801 56.6773 19.9441C55.9893 19.1921 55.6453 18.1521 55.6453 16.8241V11.7841H53.9653V9.16815H55.6453V5.71215H59.2693V9.16815H61.9813V11.7841H59.2693V16.3441C59.2693 17.0161 59.3973 17.5041 59.6533 17.8081C59.9093 18.0961 60.3653 18.2401 61.0213 18.2401C61.5493 18.2401 62.0533 18.1121 62.5333 17.8561V20.5681C61.7973 20.8881 60.8693 21.0481 59.7493 21.0481Z" fill="#95622D"/>
<path d="M64.2066 2.95215H67.8306V10.4881C68.3746 9.92815 68.9906 9.51215 69.6786 9.24015C70.3666 8.95215 71.1026 8.80815 71.8866 8.80815C73.4546 8.80815 74.6226 9.23215 75.3906 10.0801C76.1746 10.9121 76.5666 12.0401 76.5666 13.4641V20.6881H72.9426V13.8721C72.9426 12.3841 72.2546 11.6401 70.8786 11.6401C70.2706 11.6401 69.7026 11.7921 69.1746 12.0961C68.6466 12.3841 68.1986 12.8161 67.8306 13.3921V20.6881H64.2066V2.95215Z" fill="#95622D"/>
<path d="M80.9642 7.39215C80.4042 7.39215 79.9322 7.20815 79.5482 6.84015C79.1642 6.47215 78.9722 6.00815 78.9722 5.44815C78.9722 4.90415 79.1642 4.44815 79.5482 4.08015C79.9322 3.69615 80.4042 3.50415 80.9642 3.50415C81.5242 3.50415 81.9962 3.69615 82.3802 4.08015C82.7642 4.44815 82.9562 4.90415 82.9562 5.44815C82.9562 6.00815 82.7642 6.47215 82.3802 6.84015C81.9962 7.20815 81.5242 7.39215 80.9642 7.39215ZM79.1402 9.16815H82.7882V20.6881H79.1402V9.16815Z" fill="#95622D"/>
</svg>
