<svg width="24" height="24" viewBox="0 0 24 24" fill="none" xmlns="http://www.w3.org/2000/svg">
<path fill-rule="evenodd" clip-rule="evenodd" d="M5.47705 8.30763C5.47705 4.80822 8.41576 2 12 2C15.5842 2 18.5228 4.80822 18.5228 8.30763C18.5228 11.807 15.5842 14.6153 12 14.6153C8.41576 14.6153 5.47705 11.807 5.47705 8.30763ZM12 3.53845C9.23758 3.53845 7.03258 5.69428 7.03258 8.30763C7.03258 10.921 9.23758 13.0768 12 13.0768C14.7623 13.0768 16.9673 10.921 16.9673 8.30763C16.9673 5.69428 14.7623 3.53845 12 3.53845Z" fill="#EEE2CA"/>
<path fill-rule="evenodd" clip-rule="evenodd" d="M17.5274 21.5801C14.9994 17.5677 8.92843 17.5899 6.44231 21.6301C6.21893 21.993 5.74047 22.1082 5.37353 21.8873C5.0066 21.6665 4.89017 21.1932 5.11348 20.8303C8.20547 15.8057 15.7155 15.7852 18.8515 20.7727L18.8581 20.7831L18.8891 20.8345C19.1101 21.1988 18.9906 21.6713 18.6223 21.8898C18.254 22.1084 17.7763 21.9903 17.5552 21.626L17.5274 21.5801Z" fill="#EEE2CA"/>
</svg>
