<svg width="24" height="24" viewBox="0 0 24 24" fill="none" xmlns="http://www.w3.org/2000/svg">
<path d="M3.89472 18.5707H12C12.3767 18.5707 12.679 18.2614 12.679 17.8825C12.679 17.5036 12.3768 17.1942 12 17.1942H3.89472C2.99371 17.1942 2.25788 16.4489 2.25788 15.5295V9.15888H21.7421V15.5296C21.7421 15.9084 22.0443 16.2178 22.421 16.2178C22.7978 16.2178 23.1 15.9084 23.1 15.5295V4.94119C23.1 3.26577 21.758 1.9 20.1053 1.9H3.89472C2.24196 1.89995 0.9 3.26577 0.9 4.94119V15.5295C0.9 17.2049 2.24196 18.5707 3.89472 18.5707ZM3.89472 3.27647H20.1052C21.0062 3.27647 21.7421 4.0218 21.7421 4.94119V7.78237H2.25788V4.94119C2.25788 4.02176 2.99371 3.27647 3.89472 3.27647Z" fill="#262A2B" stroke="#262A2B" stroke-width="0.2"/>
<path d="M6.21031 12.4879C5.8336 12.4879 5.53135 12.7973 5.53135 13.1761C5.53135 13.555 5.83355 13.8644 6.21031 13.8644H8.52611C8.90282 13.8644 9.20507 13.555 9.20507 13.1761C9.20507 12.7973 8.90286 12.4879 8.52611 12.4879H6.21031Z" fill="#262A2B" stroke="#262A2B" stroke-width="0.2"/>
<path d="M18.2701 13.8659L18.2701 13.8659C18.0047 13.5963 17.5742 13.5963 17.3088 13.8659L17.3088 13.8659L13.8352 17.3953C13.5707 17.664 13.5707 18.0987 13.8351 18.3674L13.8352 18.3674L17.3088 21.8969C17.4413 22.0315 17.6154 22.099 17.7894 22.099C17.9635 22.099 18.1376 22.0314 18.27 21.8969C18.5345 21.6282 18.5345 21.1935 18.27 20.9247L18.27 20.9247L15.9521 18.5696H22.421C22.7978 18.5696 23.1 18.2602 23.1 17.8814C23.1 17.5025 22.7978 17.1931 22.421 17.1931H15.9521L18.2701 14.838C18.5345 14.5693 18.5345 14.1346 18.2701 13.8659Z" fill="#262A2B" stroke="#262A2B" stroke-width="0.2"/>
</svg>
