<svg width="24" height="24" viewBox="0 0 24 24" fill="none" xmlns="http://www.w3.org/2000/svg">
<g clip-path="url(#clip0_575_4858)">
<path d="M20.6295 0.95H3.37046C2.03578 0.95 0.95 2.03573 0.95 3.37041V17.8681C0.95 19.2028 2.03578 20.2885 3.37046 20.2885H8.95085L11.5088 22.8465C11.6391 22.9768 11.8157 23.05 12 23.05C12.1841 23.05 12.3608 22.9768 12.4911 22.8465L15.0491 20.2885H20.6295C21.9643 20.2885 23.05 19.2028 23.05 17.8681V3.37041C23.05 2.03573 21.9642 0.95 20.6295 0.95ZM21.6609 17.8681C21.6609 18.4367 21.1982 18.8995 20.6295 18.8995H14.7614C14.5772 18.8995 14.4006 18.9726 14.2703 19.1029C14.2703 19.1029 14.2703 19.1029 14.2703 19.1029L12 21.3733L9.72965 19.1029C9.59941 18.9727 9.42277 18.8995 9.23853 18.8995H3.37046C2.80179 18.8995 2.33906 18.4367 2.33906 17.8681V3.37041C2.33906 2.80175 2.80179 2.33906 3.37046 2.33906H20.6295C21.1982 2.33906 21.6609 2.80175 21.6609 3.37041V17.8681Z" fill="#262A2B" stroke="#262A2B" stroke-width="0.1"/>
<path d="M5.89513 8.83663L5.89513 8.83662C5.97685 8.58516 6.19419 8.40194 6.4558 8.36393L9.85625 7.8697L11.3772 4.7883C11.4942 4.55124 11.7356 4.40117 11.9999 4.40117C12.2643 4.40117 12.5057 4.55124 12.6228 4.78826L14.1438 7.8697L17.544 8.36393C17.8056 8.40194 18.023 8.58515 18.1047 8.83666C18.1047 8.83667 18.1047 8.83667 18.1047 8.83667L5.89513 8.83663ZM5.89513 8.83663C5.81345 9.08805 5.88161 9.36405 6.07089 9.54857L6.10579 9.51276M5.89513 8.83663L6.10579 9.51276M6.10579 9.51276L6.07089 9.54857L8.53162 11.9471L7.95083 15.3338C7.90615 15.5943 8.01325 15.8577 8.22711 16.0131L8.22713 16.0131M6.10579 9.51276L8.22713 16.0131M8.22713 16.0131C8.44103 16.1684 8.72458 16.189 8.95855 16.066L8.93528 16.0217M8.22713 16.0131L8.93528 16.0217M8.93528 16.0217L8.95855 16.066L11.9999 14.467L15.0416 16.066L15.0649 16.0217L15.0416 16.066C15.1432 16.1193 15.2542 16.1457 15.3647 16.1457H15.3674H15.3675M8.93528 16.0217L15.3675 16.1457M15.3675 16.1457C15.7503 16.1448 16.0602 15.8342 16.0602 15.4512M15.3675 16.1457L16.0602 15.4512M16.0602 15.4512C16.0602 15.3984 16.0543 15.3469 16.0432 15.2974M16.0602 15.4512L16.0432 15.2974M16.0432 15.2974L15.4682 11.9471L16.0432 15.2974ZM9.96245 11.822L9.96245 11.822L9.7278 11.2431L9.7627 11.2073L9.7627 11.2073L8.04826 9.53615L10.4174 9.19181C10.6436 9.15893 10.8391 9.01688 10.9403 8.8119L12 6.66488L13.0598 8.81194C13.161 9.01688 13.3565 9.15893 13.5827 9.19181L15.9516 9.53615L14.2371 11.2072C14.0734 11.3668 13.9987 11.5967 14.0374 11.822L14.4423 14.1815L12.3231 13.0676C12.1208 12.9612 11.8791 12.9612 11.6768 13.0676L11.7 13.1118L11.6768 13.0676L9.55779 14.1816L9.96245 11.822Z" fill="#262A2B" stroke="#262A2B" stroke-width="0.1"/>
</g>
<defs>
<clipPath id="clip0_575_4858">
<rect width="24" height="24" fill="white"/>
</clipPath>
</defs>
</svg>
