<svg width="40" height="40" viewBox="0 0 40 40" fill="none" xmlns="http://www.w3.org/2000/svg">
<g clip-path="url(#clip0_7_6032)">
<path d="M38.8528 14.6046C38.0541 13.8059 37.1338 13.5976 36.691 13.502C36.1527 13.3805 35.5883 13.3544 35.0414 13.4239C32.8275 8.28415 26.9064 4.80273 20.0043 4.80273C13.4929 4.80273 7.73678 8.31019 5.39267 13.502C4.70677 13.3544 4.00354 13.3544 3.31773 13.5107C2.87495 13.6062 1.95464 13.8145 1.15593 14.6133C1.00837 14.7609 -0.250535 16.0806 0.0446768 17.9645C0.331179 19.8311 1.94601 20.9945 3.32643 21.2897C3.80397 21.3938 4.29013 21.3851 4.76766 21.2809C4.81104 21.2722 4.8545 21.2636 4.88918 21.2549C5.02811 21.4893 5.47089 22.7308 4.39431 28.0789C4.36826 28.2178 4.37697 28.3654 4.42035 28.5043C5.05416 30.5359 6.07857 31.5256 7.7542 31.7166C7.78896 31.7166 7.815 31.7254 7.84968 31.7254V34.3299C7.84968 34.8075 8.24036 35.1981 8.71789 35.1981C9.19543 35.1981 9.58611 34.8075 9.58611 34.3299V31.7254H30.4227V34.3299C30.4227 34.8075 30.8134 35.1981 31.2909 35.1981C31.7684 35.1981 32.1591 34.8075 32.1591 34.3299V31.7254C32.1939 31.7254 32.2199 31.7254 32.2546 31.7166C33.9302 31.5256 34.9633 30.5359 35.5884 28.5043C35.6318 28.3654 35.6405 28.2178 35.6145 28.0789C34.5379 22.7222 34.9807 21.4806 35.1196 21.2549C35.1544 21.2636 35.1977 21.2722 35.2411 21.2809C35.7099 21.3851 36.2048 21.3938 36.6736 21.2897C38.0541 20.9944 39.6689 19.8311 39.9554 17.9645C40.2505 16.0719 38.9917 14.7522 38.8528 14.6046ZM20.0043 6.53917C26.1338 6.53917 31.3863 9.52571 33.3831 13.9622C33.0879 14.1272 32.8014 14.3095 32.5323 14.5091C31.777 15.0388 31.1085 15.6985 30.5789 16.4626C30.1708 17.0616 29.8496 17.7128 29.6065 18.3987C28.9466 20.2219 28.7557 22.3924 28.7036 23.903H11.305C11.253 22.3924 11.0533 20.2219 10.4022 18.3987C10.159 17.7128 9.83786 17.0616 9.42976 16.4626C8.90013 15.7073 8.24036 15.0388 7.47633 14.5091C7.32005 14.3963 7.15507 14.2834 6.99017 14.1793C9.0652 9.62119 14.1962 6.53917 20.0043 6.53917ZM38.2537 17.6954C38.0801 18.8153 37.0035 19.4404 36.3263 19.5794C36.0746 19.6314 35.8228 19.6227 35.5797 19.562C35.2845 19.5012 34.8765 19.4231 34.4164 19.6402C32.9665 20.2913 32.8102 22.7743 33.8781 28.1918C33.3312 29.798 32.6453 29.9196 32.1243 29.9803H7.89314C7.37223 29.9195 6.6777 29.798 6.13937 28.1918C7.20724 22.7743 7.05097 20.2913 5.60112 19.6402C5.14101 19.4318 4.7329 19.5099 4.43777 19.562C4.19465 19.6228 3.93419 19.6314 3.69116 19.5794C3.01397 19.4318 1.93738 18.8153 1.76377 17.6954C1.59879 16.6448 2.38016 15.8374 2.38016 15.8288C2.82294 15.386 3.36119 15.2645 3.69116 15.195C4.13393 15.0908 4.60276 15.0908 5.04553 15.195C5.61854 15.3252 5.97447 15.5769 6.47804 15.9242C7.06839 16.341 7.5893 16.8532 7.9974 17.4436C8.31866 17.9211 8.57041 18.442 8.76144 18.9803C9.46467 20.9511 9.57756 23.4515 9.57756 24.7624C9.57756 25.24 9.96825 25.6307 10.4458 25.6307H29.546C30.0235 25.6307 30.4142 25.24 30.4142 24.7624C30.4142 23.4428 30.5271 20.9424 31.2303 18.9716C31.4214 18.4333 31.6731 17.9124 31.9944 17.4349C32.4111 16.8446 32.9233 16.3236 33.5137 15.9155C34.0086 15.5682 34.3732 15.3165 34.9375 15.1863C35.389 15.0908 35.8491 15.0908 36.3006 15.1863C36.6305 15.2557 37.1688 15.3773 37.6116 15.8201C37.6286 15.8375 38.41 16.6449 38.2537 17.6954Z" fill="#262A2B" stroke="#262A2B" stroke-width="0.5"/>
</g>
<defs>
<clipPath id="clip0_7_6032">
<rect width="40" height="40" fill="white"/>
</clipPath>
</defs>
</svg>
