<svg width="24" height="24" viewBox="0 0 24 24" fill="none" xmlns="http://www.w3.org/2000/svg">
<g clip-path="url(#clip0_560_4799)">
<path d="M15.5288 12.1226H15.585C16.0901 12.1226 16.472 11.7281 16.472 11.242C16.472 10.7559 16.034 10.3613 15.5288 10.3613C15.0237 10.3613 14.6138 10.7559 14.6138 11.242C14.6138 11.7281 15.0237 12.1226 15.5288 12.1226Z" fill="#262A2B"/>
<path d="M8.47071 12.1226H8.41458C7.90946 12.1226 7.49951 11.7281 7.49951 11.242C7.49951 10.7559 7.90946 10.3613 8.41458 10.3613C8.91971 10.3613 9.35772 10.7559 9.35772 11.242C9.35772 11.7281 8.97583 12.1226 8.47071 12.1226Z" fill="#262A2B"/>
<path fill-rule="evenodd" clip-rule="evenodd" d="M5.84471 5.26898C6.00629 3.91777 6.62782 2.68413 7.63398 1.72489C8.80771 0.604708 10.3915 0.0399225 12.0166 0C15.1833 0 17.8037 2.30732 18.157 5.26946C20.3349 5.77019 21.8572 6.60981 22.8164 7.81496C24.111 9.44122 24.3403 11.6534 23.5204 14.5806C21.6903 21.1127 20.5214 24 12.0003 24C3.47916 24 2.31031 21.1127 0.480165 14.5806C-0.340961 11.6534 -0.110363 9.44122 1.18294 7.81496C2.14255 6.60941 3.66556 5.76964 5.84471 5.26898ZM16.2401 4.93649C15.7732 3.11085 14.0725 1.76029 11.9922 1.76129C10.8319 1.76129 9.74358 2.19104 8.9224 2.9754C8.34779 3.52349 7.95149 4.19886 7.76144 4.93628C9.0071 4.77995 10.4165 4.70336 12.0003 4.70336C13.5846 4.70336 14.9943 4.78002 16.2401 4.93649ZM2.63608 8.887C3.93304 7.25722 6.99549 6.46464 12.0003 6.46464C17.0039 6.46464 20.0663 7.25722 21.3633 8.887C22.2881 10.0471 22.415 11.7602 21.7537 14.1215C20.0517 20.1933 19.4783 22.2387 12.0003 22.2387C4.52113 22.2387 3.94768 20.1933 2.24687 14.1215C1.58435 11.7602 1.71124 10.0471 2.63608 8.887Z" fill="#262A2B"/>
</g>
<defs>
<clipPath id="clip0_560_4799">
<rect width="24" height="24" fill="white"/>
</clipPath>
</defs>
</svg>
