<svg width="24" height="24" viewBox="0 0 24 24" fill="none" xmlns="http://www.w3.org/2000/svg">
<g clip-path="url(#clip0_560_5376)">
<path d="M7.48678 5.02326C7.02421 5.02326 6.64062 4.64372 6.64062 4.18605V0.837209C6.64062 0.379535 7.02421 0 7.48678 0C7.94934 0 8.33293 0.379535 8.33293 0.837209V4.18605C8.33293 4.64372 7.94934 5.02326 7.48678 5.02326Z" fill="#262A2B"/>
<path d="M16.5131 5.02326C16.0506 5.02326 15.667 4.64372 15.667 4.18605V0.837209C15.667 0.379535 16.0506 0 16.5131 0C16.9757 0 17.3593 0.379535 17.3593 0.837209V4.18605C17.3593 4.64372 16.9757 5.02326 16.5131 5.02326Z" fill="#262A2B"/>
<path d="M16.5128 23.9994H7.48718C3.36923 23.9994 1 21.6552 1 17.5808V8.09243C1 4.01801 3.36923 1.67383 7.48718 1.67383H16.5128C20.6308 1.67383 23 4.01801 23 8.09243V17.5808C23 21.6552 20.6308 23.9994 16.5128 23.9994ZM7.48718 3.34825C4.26051 3.34825 2.69231 4.89987 2.69231 8.09243V17.5808C2.69231 20.7734 4.26051 22.325 7.48718 22.325H16.5128C19.7395 22.325 21.3077 20.7734 21.3077 17.5808V8.09243C21.3077 4.89987 19.7395 3.34825 16.5128 3.34825H7.48718Z" fill="#262A2B"/>
<path d="M16.5124 11.7213H7.48678C7.02421 11.7213 6.64062 11.3418 6.64062 10.8841C6.64062 10.4264 7.02421 10.0469 7.48678 10.0469H16.5124C16.975 10.0469 17.3586 10.4264 17.3586 10.8841C17.3586 11.3418 16.975 11.7213 16.5124 11.7213Z" fill="#262A2B"/>
<path d="M11.9996 17.3014H7.48678C7.02421 17.3014 6.64062 16.9218 6.64062 16.4642C6.64062 16.0065 7.02421 15.627 7.48678 15.627H11.9996C12.4622 15.627 12.8458 16.0065 12.8458 16.4642C12.8458 16.9218 12.4622 17.3014 11.9996 17.3014Z" fill="#262A2B"/>
</g>
<defs>
<clipPath id="clip0_560_5376">
<rect width="24" height="24" fill="white"/>
</clipPath>
</defs>
</svg>
