<svg width="15" height="16" viewBox="0 0 15 16" fill="none" xmlns="http://www.w3.org/2000/svg">
<path fill-rule="evenodd" clip-rule="evenodd" d="M9.38582 1.70364L1.43215 11.651C1.28769 11.8318 1.23447 12.065 1.28769 12.2888L1.86299 14.7261L4.4303 14.694C4.67445 14.6914 4.90001 14.5824 5.04953 14.3966C7.7672 10.9963 12.9483 4.51341 13.0953 4.32333C13.2338 4.09861 13.2879 3.78097 13.2152 3.47516C13.1409 3.16174 12.9458 2.89563 12.6644 2.72583C12.6045 2.68444 11.181 1.57945 11.1371 1.54482C10.6015 1.11566 9.82004 1.19001 9.38582 1.70364ZM1.36288 16C1.06973 16 0.814608 15.7989 0.74618 15.5126L0.0542982 12.5803C-0.0884711 11.9729 0.0534535 11.3461 0.442901 10.8595L8.40079 0.906156C8.40417 0.902777 8.40671 0.898553 8.41009 0.895174C9.28275 -0.14814 10.8608 -0.301891 11.9253 0.55219C11.9675 0.585137 13.3808 1.68336 13.3808 1.68336C13.8945 1.98918 14.2957 2.53575 14.4478 3.18286C14.599 3.82321 14.4892 4.48384 14.1369 5.04224C14.1107 5.08364 14.0879 5.11912 6.03877 15.189C5.65102 15.6722 5.06981 15.9535 4.44551 15.9611L1.37132 16H1.36288Z" fill="white"/>
</svg>
