<svg width="54" height="54" viewBox="0 0 54 54" fill="none" xmlns="http://www.w3.org/2000/svg">
<path d="M27 12.625C28.0355 12.625 28.875 13.4645 28.875 14.5V29.5C28.875 30.5355 28.0355 31.375 27 31.375C25.9645 31.375 25.125 30.5355 25.125 29.5V14.5C25.125 13.4645 25.9645 12.625 27 12.625Z" fill="#E54747"/>
<path d="M27 39.5C28.3807 39.5 29.5 38.3807 29.5 37C29.5 35.6193 28.3807 34.5 27 34.5C25.6193 34.5 24.5 35.6193 24.5 37C24.5 38.3807 25.6193 39.5 27 39.5Z" fill="#E54747"/>
<path fill-rule="evenodd" clip-rule="evenodd" d="M0.125 27C0.125 12.1574 12.1574 0.125 27 0.125C41.8428 0.125 53.875 12.1574 53.875 27C53.875 41.8428 41.8428 53.875 27 53.875C12.1574 53.875 0.125 41.8428 0.125 27ZM27 3.875C14.2284 3.875 3.875 14.2284 3.875 27C3.875 39.7715 14.2284 50.125 27 50.125C39.7715 50.125 50.125 39.7715 50.125 27C50.125 14.2284 39.7715 3.875 27 3.875Z" fill="#E54747"/>
</svg>
