<svg width="44" height="48" viewBox="0 0 44 48" fill="none" xmlns="http://www.w3.org/2000/svg">
<path fill-rule="evenodd" clip-rule="evenodd" d="M15.4771 8.30763C15.4771 4.80822 18.4158 2 22 2C25.5842 2 28.5228 4.80822 28.5228 8.30763C28.5228 11.807 25.5842 14.6153 22 14.6153C18.4158 14.6153 15.4771 11.807 15.4771 8.30763ZM22 3.53845C19.2376 3.53845 17.0326 5.69428 17.0326 8.30763C17.0326 10.921 19.2376 13.0768 22 13.0768C24.7623 13.0768 26.9673 10.921 26.9673 8.30763C26.9673 5.69428 24.7623 3.53845 22 3.53845Z" fill="#EEE2CA"/>
<path fill-rule="evenodd" clip-rule="evenodd" d="M27.5274 21.5801C24.9994 17.5677 18.9284 17.5899 16.4423 21.6301C16.2189 21.993 15.7405 22.1082 15.3735 21.8873C15.0066 21.6665 14.8902 21.1932 15.1135 20.8303C18.2055 15.8057 25.7155 15.7852 28.8515 20.7727L28.8581 20.7831L28.8891 20.8345C29.1101 21.1988 28.9906 21.6713 28.6223 21.8898C28.254 22.1084 27.7763 21.9903 27.5552 21.626L27.5274 21.5801Z" fill="#EEE2CA"/>
<path d="M1.43318 44V34.2H4.98218C5.67751 34.2 6.29118 34.3213 6.82318 34.564C7.35985 34.802 7.77985 35.1473 8.08318 35.6C8.38651 36.048 8.53818 36.587 8.53818 37.217C8.53818 37.8657 8.39818 38.414 8.11818 38.862C7.83818 39.3053 7.42985 39.6437 6.89318 39.877C6.36118 40.1057 5.71251 40.22 4.94718 40.22H3.00118V44H1.43318ZM3.00118 38.876H4.96818C5.60285 38.876 6.09518 38.743 6.44518 38.477C6.79518 38.2063 6.97018 37.798 6.97018 37.252C6.97018 36.7107 6.79051 36.2953 6.43118 36.006C6.07185 35.7167 5.58885 35.572 4.98218 35.572H3.00118V38.876ZM10.1032 44V37.07H11.6432V38.029C11.9046 37.595 12.2219 37.2917 12.5952 37.119C12.9686 36.9417 13.3699 36.853 13.7992 36.853C13.9392 36.853 14.0722 36.86 14.1982 36.874C14.3242 36.888 14.4456 36.909 14.5622 36.937L14.3592 38.526C14.2192 38.484 14.0769 38.4513 13.9322 38.428C13.7876 38.4047 13.6429 38.393 13.4982 38.393C12.9616 38.393 12.5182 38.5587 12.1682 38.89C11.8182 39.2167 11.6432 39.6623 11.6432 40.227V44H10.1032ZM18.8657 44.21C18.1424 44.21 17.496 44.0443 16.9267 43.713C16.362 43.377 15.9187 42.9313 15.5967 42.376C15.2747 41.816 15.1137 41.2023 15.1137 40.535C15.1137 40.0403 15.2047 39.5737 15.3867 39.135C15.5734 38.6917 15.8347 38.2997 16.1707 37.959C16.5114 37.6183 16.9104 37.35 17.3677 37.154C17.825 36.958 18.3267 36.86 18.8727 36.86C19.596 36.86 20.24 37.028 20.8047 37.364C21.374 37.6953 21.8197 38.141 22.1417 38.701C22.4637 39.2563 22.6247 39.8677 22.6247 40.535C22.6247 41.025 22.5314 41.4917 22.3447 41.935C22.1627 42.3783 21.9037 42.7703 21.5677 43.111C21.2317 43.4517 20.835 43.72 20.3777 43.916C19.9204 44.112 19.4164 44.21 18.8657 44.21ZM18.8657 42.845C19.295 42.845 19.6754 42.7517 20.0067 42.565C20.3427 42.3737 20.6064 42.1053 20.7977 41.76C20.989 41.4147 21.0847 41.0063 21.0847 40.535C21.0847 40.0637 20.989 39.6553 20.7977 39.31C20.6064 38.96 20.3427 38.6917 20.0067 38.505C19.6754 38.3183 19.295 38.225 18.8657 38.225C18.4364 38.225 18.0537 38.3183 17.7177 38.505C17.3864 38.6917 17.125 38.96 16.9337 39.31C16.747 39.6553 16.6537 40.0637 16.6537 40.535C16.6537 41.0063 16.7494 41.4147 16.9407 41.76C17.132 42.1053 17.3934 42.3737 17.7247 42.565C18.0607 42.7517 18.441 42.845 18.8657 42.845ZM24.7822 44V35.936C24.7822 35.2453 24.9806 34.7017 25.3772 34.305C25.7786 33.9083 26.3316 33.71 27.0362 33.71C27.2929 33.71 27.5262 33.738 27.7362 33.794C27.9509 33.8453 28.1492 33.92 28.3312 34.018L28.0442 35.236C27.9089 35.1613 27.7782 35.11 27.6522 35.082C27.5262 35.054 27.4026 35.04 27.2812 35.04C26.9966 35.04 26.7632 35.1123 26.5812 35.257C26.4039 35.4017 26.3152 35.649 26.3152 35.999V37.07H28.1352V38.344H26.3152V44H24.7822ZM23.3892 38.344V37.07H24.9852V38.344H23.3892ZM29.5352 44V37.07H31.0752V44H29.5352ZM30.3052 35.831C30.0299 35.831 29.7919 35.7423 29.5912 35.565C29.3906 35.3877 29.2902 35.1543 29.2902 34.865C29.2902 34.5803 29.3906 34.3493 29.5912 34.172C29.7919 33.99 30.0299 33.899 30.3052 33.899C30.5806 33.899 30.8186 33.99 31.0192 34.172C31.2199 34.3493 31.3202 34.5803 31.3202 34.865C31.3202 35.1543 31.2199 35.3877 31.0192 35.565C30.8186 35.7423 30.5806 35.831 30.3052 35.831ZM33.2224 44V33.92H34.7624V44H33.2224ZM40.0641 44.21C39.3174 44.21 38.6618 44.0583 38.0971 43.755C37.5324 43.447 37.0914 43.0177 36.7741 42.467C36.4614 41.9163 36.3051 41.277 36.3051 40.549C36.3051 40.017 36.3961 39.527 36.5781 39.079C36.7601 38.6263 37.0168 38.2343 37.3481 37.903C37.6794 37.5717 38.0668 37.315 38.5101 37.133C38.9581 36.951 39.4458 36.86 39.9731 36.86C40.5471 36.86 41.0581 36.9627 41.5061 37.168C41.9541 37.3687 42.3251 37.651 42.6191 38.015C42.9178 38.379 43.1278 38.806 43.2491 39.296C43.3751 39.7813 43.3961 40.3087 43.3121 40.878H37.7821C37.7728 41.2933 37.8638 41.6573 38.0551 41.97C38.2464 42.278 38.5194 42.5183 38.8741 42.691C39.2334 42.8637 39.6558 42.95 40.1411 42.95C40.5331 42.95 40.9111 42.8917 41.2751 42.775C41.6438 42.6537 41.9774 42.4763 42.2761 42.243L42.8711 43.349C42.6471 43.531 42.3764 43.6873 42.0591 43.818C41.7418 43.944 41.4104 44.0397 41.0651 44.105C40.7198 44.175 40.3861 44.21 40.0641 44.21ZM37.8731 39.744H41.8001C41.7861 39.2213 41.6181 38.8107 41.2961 38.512C40.9788 38.2133 40.5261 38.064 39.9381 38.064C39.3688 38.064 38.8951 38.2133 38.5171 38.512C38.1438 38.8107 37.9291 39.2213 37.8731 39.744Z" fill="#EEE2CA"/>
</svg>
